<svg xmlns="http://www.w3.org/2000/svg" width="190" height="167" viewBox="0 0 190 167">
    <defs>
        <clipPath id="2fcvefn3wa">
            <rect data-name="Rectangle 6673" width="190" height="167" rx="10" transform="translate(222 603)" style="fill:#c4eeff"/>
        </clipPath>
        <clipPath id="6hwn6gbt8b">
            <path data-name="Rectangle 6674" style="fill:#fff" d="M0 0h87.567v26.839H0z"/>
        </clipPath>
    </defs>
    <g data-name="Group 21897" transform="translate(-222 -659)">
        <rect data-name="Rectangle 6660" width="190" height="167" rx="10" transform="translate(222 659)" style="fill:#c4eeff"/>
        <g data-name="Mask Group 102" transform="translate(0 56)" style="clip-path:url(#2fcvefn3wa)">
            <circle data-name="Ellipse 2231" cx="110.5" cy="110.5" r="110.5" transform="translate(59 489)" style="opacity:.387;fill:#fff"/>
        </g>
        <g data-name="Group 21219">
            <g data-name="Group 21218" style="clip-path:url(#6hwn6gbt8b)" transform="rotate(2 -18681.889 8376.046)">
                <path data-name="Path 36949" d="M77.656 4.938q-1.068.513-2.158 1.022-2.641 1.233-5.224 2.356a4.984 4.984 0 0 1 .454.937 5.082 5.082 0 0 1 .284 2.072 6.688 6.688 0 0 1 1.959 1.59 4.51 4.51 0 0 1 1.077 1.95 3.967 3.967 0 0 1 .079 1.336 4.013 4.013 0 0 1-.348 1.242 4.466 4.466 0 0 1-7.32.927 4.7 4.7 0 0 1-.825-1.577 4.293 4.293 0 0 1 .07-2.26 5.277 5.277 0 0 1 .9-1.848 3.287 3.287 0 0 1-1.64-2.439q-1.746.556-3.492 1.107-3.587 1.132-7.183 2.243a4.486 4.486 0 0 1 .483 2.64c.232.263.57.661.954 1.165a8.647 8.647 0 0 1 1.512 2.348 3.889 3.889 0 0 1-2.582 5.013 5.379 5.379 0 0 1-5.285-1.149 3.652 3.652 0 0 1-1.2-3.931 8.109 8.109 0 0 1 .511-1.428 7.265 7.265 0 0 1 .582-1 3.768 3.768 0 0 1-.71-2.249 55.271 55.271 0 0 1-10.049.58 3.408 3.408 0 0 1-.015 1.157 3.565 3.565 0 0 1-1.022 1.874c.278.844.532 1.518.71 1.971a17.467 17.467 0 0 1 .9 2.673 2.618 2.618 0 0 1-1.676 3.151 4.681 4.681 0 0 1-1.258.332 6.368 6.368 0 0 1-4.938-1.057 4.528 4.528 0 0 1-1.7-2.811 5.06 5.06 0 0 1 2.9-4.855 4.193 4.193 0 0 1-.327-2.97q-1.819-.293-3.761-.692c-1.535-.317-3-.663-4.392-1.027a8.95 8.95 0 0 1-1.357 2.295 8.844 8.844 0 0 1-.851.9c.033.817.065 1.477.088 1.918.053 1.03.079 1.357.087 1.956a15.524 15.524 0 0 1-.046 1.738 4.279 4.279 0 0 1-5.072 3.842 6.5 6.5 0 0 1-2.765-1.21 4.2 4.2 0 0 1-.984-5.97 8.155 8.155 0 0 1 1.3-1.45c.756-.7 1.737-1.588 2.916-2.612a5.27 5.27 0 0 1 .937-3.322L12.393 9.08a4.309 4.309 0 0 1-2.6 2.31c-.053.476-.093.979-.169 1.476a16.1 16.1 0 0 1-.424 2.347 5.075 5.075 0 0 1-.952 1.931 4.425 4.425 0 0 1-2.079 1.35 5.139 5.139 0 0 1-4.429-1.022C1.627 17.374-.28 15.7.036 13.625a4.407 4.407 0 0 1 .73-1.73 5.672 5.672 0 0 1 1.523-1.525 8.68 8.68 0 0 1 3.287-1.457 3.5 3.5 0 0 1 .724-1.7 3.435 3.435 0 0 1 .947-.817 25.921 25.921 0 0 1-1.372-.844C4.559 4.684 4.208 4.282 4.134 3.8a1.311 1.311 0 0 1-.006-.346.975.975 0 0 1 .384-.069 1.539 1.539 0 0 1 .941.537 59.8 59.8 0 0 0 19.438 8.454 66.591 66.591 0 0 0 11.343 1.907 52.382 52.382 0 0 0 5.793.125 51.136 51.136 0 0 0 7.158-.8 105.558 105.558 0 0 0 11.778-3.064 157.057 157.057 0 0 0 20.989-8.862c.838-.444 3.555-1.9 3.71-1.655.128.2-1.544 1.483-1.647 1.561a15.113 15.113 0 0 1-2.081 1.333 2.486 2.486 0 0 1 .662.768 2.544 2.544 0 0 1 .292 1.493 6.227 6.227 0 0 0 1.954 1.093 7.831 7.831 0 0 1 1.416.539 2.374 2.374 0 0 1 1.28 2.539 3.639 3.639 0 0 1-1.04 2.107 5.141 5.141 0 0 1-5.459 1.008 3.17 3.17 0 0 1-1.926-2.695 2.8 2.8 0 0 1 .015-.867c.051-.236.049-.385.073-.546a7.367 7.367 0 0 0 .074-1.26 3.115 3.115 0 0 1-1.618-2.157M17.866 15.685c-.982.718-1.95 1.356-2.832 2.1a6.517 6.517 0 0 0-1.413 1.624 3.375 3.375 0 0 0 .7 4.348 5.007 5.007 0 0 0 3.355 1.34 3.082 3.082 0 0 0 3.2-2.886 29.056 29.056 0 0 0-.209-5.235l-2.8-1.288M5.909 9.637c-.753.246-1.451.426-2.109.7a5.2 5.2 0 0 0-2.332 1.868A3.236 3.236 0 0 0 .944 13.6a3.286 3.286 0 0 0 .246 1.658 4.526 4.526 0 0 0 2.51 2.417 3.21 3.21 0 0 0 1.465.309A3.173 3.173 0 0 0 7.4 16.808a5.4 5.4 0 0 0 .82-1.5 8.527 8.527 0 0 0 .392-3.875l-2.7-1.791m27.176 9.027c-1.768.885-2.866 2.428-2.725 3.875a3.491 3.491 0 0 0 .724 1.7 4.417 4.417 0 0 0 2.6 1.576 3.9 3.9 0 0 0 3.066-.213 2.849 2.849 0 0 0 1.192-1.363 3.839 3.839 0 0 0-.345-2.854 7.746 7.746 0 0 0-1.235-2.129l-3.279-.6m17.2-1.1a2.634 2.634 0 0 0-.372.48 9.026 9.026 0 0 0-.488 1.207 3.862 3.862 0 0 0 .049 2.984 3.682 3.682 0 0 0 2.176 1.785 4.12 4.12 0 0 0 1.59.17 3.519 3.519 0 0 0 2.578-1.158 3.275 3.275 0 0 0 .615-2.534 3.738 3.738 0 0 0-.553-1.4 6.96 6.96 0 0 0-1.816-1.991l-3.779.454m17.094-4.614c-.1.14-1.441 2.129-.659 3.921a3.673 3.673 0 0 0 .9 1.221 3.486 3.486 0 0 0 1.743.779 3.4 3.4 0 0 0 2.465-.6 3.292 3.292 0 0 0 1.309-2.392 4.013 4.013 0 0 0-3.066-3.776l-1.249.4q-.726.23-1.448.454m12.919-5.972c-.137.714-.288 1.342-.372 1.98a2.431 2.431 0 0 0 1.5 2.6 3.89 3.89 0 0 0 4.69-1.055 1.926 1.926 0 0 0-.779-3.163c-1-.406-2.015-.754-3.072-1.146l-1.967.783m-57.429 6.065-3.918-1.363a3.09 3.09 0 0 0-.682 1.192 2.1 2.1 0 0 0-.077 1.309 2.337 2.337 0 0 0 1.5 1.267 2.483 2.483 0 0 0 1.725.192 2.621 2.621 0 0 0 1.448-2.6m10.263 2.044a2.092 2.092 0 0 0-.3 1.022 2.225 2.225 0 0 0 .511 1.405 2.535 2.535 0 0 0 3.386.154 2.139 2.139 0 0 0 .457-.713 2.508 2.508 0 0 0 .117-1.485l-4.173-.383M11.651 8.828 7.79 6.84A1.855 1.855 0 0 0 6.74 8a1.517 1.517 0 0 0 .028.766A2.73 2.73 0 0 0 9.55 10.5a2.5 2.5 0 0 0 1.164-.426 2.531 2.531 0 0 0 .937-1.249m40.54 7.835a2.277 2.277 0 0 0 1.675-.852 2.22 2.22 0 0 0-.085-2.044L49.125 14.9a2.379 2.379 0 0 0 .908 1.5 2.68 2.68 0 0 0 2.158.256m17.318-7.999q-.857.361-1.788.71-1.1.41-2.129.738a2.26 2.26 0 0 0 3.577 1.562 1.993 1.993 0 0 0 .908-1.192 2.114 2.114 0 0 0-.568-1.817m8.914-3.918a1.879 1.879 0 0 0 .88 1.334 1.86 1.86 0 0 0 2.5-1.107 1.951 1.951 0 0 0-.511-1.675 22.252 22.252 0 0 0-2.863 1.448" transform="translate(-.001 .001)" style="fill:#fff"/>
            </g>
        </g>
        <path data-name="Path 36955" d="M174.47 71.085a2.488 2.488 0 0 0-1.593 4.711c.123.046.252.089.379.134a3.033 3.033 0 0 0 1.4 4.863c0 .058.005.11.008.153.052.872.484 4.961 4 7.135a6.962 6.962 0 0 0-1.132 1.437c-5.76.825-8.242 2.344-9.28 12.222a64.775 64.775 0 0 0-.315 6.835h-7.876v-1.76c.17-2.57 1.419-6.551 1.626-10.5a12.128 12.128 0 0 0-.28-3.819c-.166-5.3-11.388-5.3-11.554 0a12.189 12.189 0 0 0-.279 3.819c.206 3.943 1.456 7.925 1.626 10.5v1.759h-5.528v-1.76c.17-2.567 1.418-6.555 1.624-10.5a12.145 12.145 0 0 0-.277-3.808c-.152-5.307-11.388-5.314-11.554-.011a12.132 12.132 0 0 0-.28 3.819c.2 3.94 1.456 7.925 1.626 10.5v1.761h-9.344a2.153 2.153 0 1 0 .053 4.306h.653a.4.4 0 0 1 .4.4 2.155 2.155 0 0 0 1.843 2.129v32.24h-7.357a.879.879 0 0 0 0 1.758h89.77a.879.879 0 0 0 0-1.758h-7.357v-32.24a2.155 2.155 0 0 0 1.843-2.129.4.4 0 0 1 .4-.4h.652a2.153 2.153 0 1 0 .053-4.306h-8.923a64.571 64.571 0 0 0-.317-6.835c-1.036-9.876-3.517-11.4-9.277-12.222a7.02 7.02 0 0 0-1.132-1.438c3.514-2.17 3.95-6.261 4-7.13 0-.046.005-.1.008-.156a3.037 3.037 0 0 0 1.462-4.8c.195-.066.388-.133.573-.2a2.489 2.489 0 0 0-1.594-4.711v-5.2a4.179 4.179 0 0 0-4.959-4.1 25.054 25.054 0 0 1-8.832 0 4.177 4.177 0 0 0-4.963 4.1zm18.344 31.625h4.686c.193 2.175.239 4.26.231 5.866h-4.923zM188.2 93.2a2.068 2.068 0 0 1-2.928 0c1.1-.679 2.576-1.846 2.757-3.318 1.076 1.378.872 2.616.171 3.317zm-4.484-1.136c-1.149-.589-2.576-1.656-2.576-2.48V89.1a11.433 11.433 0 0 0 5.152 0v.486c0 .82-1.428 1.889-2.576 2.48zm3.484-21.853h4.264v1.422a27.054 27.054 0 0 1-4.264.716zm-4.952 0h3.194v2.255a36.98 36.98 0 0 1-3.194 0zm-6.022 0h4.264v2.139a27.063 27.063 0 0 1-4.264-.716zm.191 10.624c-.01-.153-.018-.459-.023-.819a.879.879 0 0 0-.876-.869 1.238 1.238 0 1 1 .082-2.473v.832a.879.879 0 1 0 1.758 0v-.552c.6.1 1.208.186 1.829.257a1.1 1.1 0 1 0 1.972.176 41.565 41.565 0 0 0 5.118.013 1.1 1.1 0 1 0 1.987-.167 36.453 36.453 0 0 0 1.815-.242v.515a.879.879 0 0 0 1.758 0v-.835a1.239 1.239 0 1 1 .083 2.476.879.879 0 0 0-.879.864c-.005.315-.012.664-.023.828a7.319 7.319 0 0 1-14.6 0zm2.8 12.336c-.694-.694-.891-1.909.187-3.288.181 1.471 1.652 2.638 2.757 3.317a2.109 2.109 0 0 1-2.944-.028zm-9.291 9.538h4.693v5.866H169.7c-.006-1.61.038-3.7.23-5.866zm-10.518-10.967h-7.535c1.245-1.972 6.342-1.912 7.535 0zm-7.969 1.758h8.4a9.869 9.869 0 0 1 .131 1.893h-8.659a10.129 10.129 0 0 1 .132-1.893zm6.87 13.28v1.8h-5.345v-1.8zm-13.288-15.038h-7.535c1.245-1.972 6.342-1.912 7.535 0zm-7.97 1.758h8.4a11.785 11.785 0 0 1 .1 2.726v.046h-8.595a12.274 12.274 0 0 1 .1-2.772zm6.871 13.28v1.8h-5.345v-1.8zm13.731 35.512a1.888 1.888 0 0 1 1.887 1.887v3.465h-9.493v-3.464a1.888 1.888 0 0 1 1.887-1.887zm-4.794-1.758v-10.059h3.869v10.059zm10.071-12.7a.88.88 0 0 1-.879.879h-14.515a.88.88 0 0 1-.879-.879v-4.181a.88.88 0 0 1 .879-.879h14.515a.88.88 0 0 1 .879.879zm21.337 14.453a1.888 1.888 0 0 1 1.887 1.887v3.465h-9.5v-3.459a1.888 1.888 0 0 1 1.887-1.887zm-4.8-1.758v-10.054h3.871v10.059zm10.073-12.7a.88.88 0 0 1-.879.879h-14.513a.88.88 0 0 1-.879-.879v-4.181a.88.88 0 0 1 .879-.879h14.518a.88.88 0 0 1 .879.879zm15.62-14.168h-74.431a.4.4 0 0 1-.4-.4 2.156 2.156 0 0 0-2.153-2.153h-.652a.4.4 0 0 1-.3-.087.4.4 0 0 1 .25-.7h80.943a.4.4 0 1 1-.053.791h-.652a2.156 2.156 0 0 0-2.153 2.153.4.4 0 0 1-.4.4z" transform="translate(151.743 609.704)" style="fill:#3fa0c7"/>
    </g>
</svg>
