<svg xmlns="http://www.w3.org/2000/svg" width="60" height="60" viewBox="0 0 60 60">
    <g data-name="Group 21921">
        <path data-name="Path 38074" d="M7.533 14.516h9.534l-4.031-5.889A11.62 11.62 0 0 0 4.991 4H3.046v5.4a4.375 4.375 0 0 0 4.319 5.121h.175zm30.566 0V13.5a5.994 5.994 0 0 0-5.883-5.994H15.77c1.753 2.173 4.8 7.011 4.8 7.011z" transform="translate(9.47 11.505)" style="fill:#20918b"/>
        <path data-name="Path 38075" d="M52.579 10.361a3.505 3.505 0 0 0-3.505 3.505v6.66H7.011V6.505a3.505 3.505 0 1 0-7.011 0v31.548h7.011v-7.011h42.063v7.011h7.011V13.866a3.505 3.505 0 0 0-3.506-3.505z" transform="translate(2 9)" style="fill:#df572c"/>
    </g>
</svg>
