<svg xmlns="http://www.w3.org/2000/svg" width="60" height="62.592" viewBox="0 0 60 62.592">
    <g data-name="Group 21895">
        <path data-name="Path 36927" d="M31.816 8.494v2.326h-1.155V7.814l.285-.158c.142-.079 3.417-1.978 2.215-4.256a2.09 2.09 0 0 0-2.231-1.266 3.253 3.253 0 0 0-1.914.886l-1.123 1.044-.793-.854 1.123-1.044A4.484 4.484 0 0 1 30.8.963a3.28 3.28 0 0 1 3.4 1.883c1.287 2.454-.849 4.667-2.384 5.648z" transform="translate(-1.748 -.946)" style="fill:#676767"/>
        <path data-name="Rectangle 6665" transform="translate(2.789 30.239)" style="fill:#676767" d="M0 0h53.468v1.494H0z"/>
        <path data-name="Path 36928" d="M71.044 29.412a1.259 1.259 0 0 1-1.858.873l-4.906-2.73c-6.59-4.732-23.008-13.522-23.2-13.627-.195.105-16.612 8.894-23.2 13.627l-4.905 2.729a1.261 1.261 0 0 1-1.859-.873 3.634 3.634 0 0 1 1.3-3.08C16.27 22.3 24.643 21.357 31.88 14.056c3.5-3.535 3.938-6.66 9.2-7.228 5.256.568 5.691 3.693 9.194 7.228 7.3 7.365 15.5 8.126 19.474 12.277a3.625 3.625 0 0 1 1.296 3.079z" transform="translate(-11.076 2.478)" style="fill:#df572c"/>
        <path data-name="Path 36929" d="M50.316 17.721H21.059a1.546 1.546 0 0 0-1.546 1.546v32.96a1.546 1.546 0 0 0 1.546 1.546h29.257a1.546 1.546 0 0 0 1.546-1.546V19.266a1.546 1.546 0 0 0-1.546-1.545z" transform="translate(-6.165 8.819)" style="fill:#20918b"/>
        <path data-name="Rectangle 6666" transform="translate(13.349 52.802)" style="fill:rgba(106,214,209,.45)" d="M0 0h32.348v2.886H0z"/>
        <path data-name="Rectangle 6667" transform="translate(13.349 56.953)" style="fill:rgba(106,214,209,.45)" d="M0 0h32.348v1.525H0z"/>
    </g>
</svg>
