<svg xmlns="http://www.w3.org/2000/svg" width="24" height="24" viewBox="0 0 24 24">
    <g data-name="vuesax/linear/setting-2">
        <path d="M3-.75A3.75 3.75 0 1 1-.75 3 3.754 3.754 0 0 1 3-.75zm0 6A2.25 2.25 0 1 0 .75 3 2.253 2.253 0 0 0 3 5.25z" transform="translate(9 9)" style="fill:#888c9f"/>
        <path data-name="Vector" d="M13.209 19.628a2.449 2.449 0 0 1-2.093-1.2v-.008l-.11-.19c-.293-.512-.654-.8-.992-.8s-.7.293-1 .8l-.11.19v.008a2.449 2.449 0 0 1-2.093 1.2 2.377 2.377 0 0 1-1.219-.328l-1.725-.99a2.649 2.649 0 0 1-.977-3.616 1.332 1.332 0 0 0 .2-1.264 1.328 1.328 0 0 0-1.19-.461 2.653 2.653 0 0 1-2.65-2.65v-1.76a2.653 2.653 0 0 1 2.65-2.65 1.328 1.328 0 0 0 1.19-.461 1.331 1.331 0 0 0-.2-1.263A2.649 2.649 0 0 1 3.868.568l1.724-.987A2.377 2.377 0 0 1 6.8-.75 2.449 2.449 0 0 1 8.895.445v.008l.11.19c.293.512.654.8.992.8s.7-.293 1-.8l.11-.19V.445a2.449 2.449 0 0 1 2.093-1.2 2.377 2.377 0 0 1 1.209.331l1.725.987a2.649 2.649 0 0 1 .977 3.616 1.332 1.332 0 0 0-.2 1.264 1.328 1.328 0 0 0 1.19.461 2.653 2.653 0 0 1 2.65 2.65v1.76a2.653 2.653 0 0 1-2.65 2.65 1.328 1.328 0 0 0-1.19.461 1.331 1.331 0 0 0 .2 1.263 2.651 2.651 0 0 1-.977 3.617l-1.724.987a2.378 2.378 0 0 1-1.201.336zm-.8-1.959a.942.942 0 0 0 .8.459.865.865 0 0 0 .448-.128h.01l1.73-.99a1.131 1.131 0 0 0 .535-.693 1.149 1.149 0 0 0-.113-.874 2.738 2.738 0 0 1-.2-2.76 2.738 2.738 0 0 1 2.49-1.212 1.151 1.151 0 0 0 1.15-1.15V8.559a1.151 1.151 0 0 0-1.15-1.15A2.738 2.738 0 0 1 15.62 6.2a2.741 2.741 0 0 1 .2-2.764 1.149 1.149 0 0 0-.42-1.566L13.667.88l-.01-.007a.865.865 0 0 0-.448-.123.942.942 0 0 0-.8.459l-.107.185A2.749 2.749 0 0 1 10 2.946a2.732 2.732 0 0 1-2.291-1.554L7.6 1.209A.942.942 0 0 0 6.8.75a.865.865 0 0 0-.448.123L6.343.88l-1.73.99a1.149 1.149 0 0 0-.423 1.564 2.74 2.74 0 0 1 .2 2.766A2.738 2.738 0 0 1 1.9 7.409a1.151 1.151 0 0 0-1.15 1.15v1.76a1.151 1.151 0 0 0 1.15 1.15 2.738 2.738 0 0 1 2.49 1.212 2.741 2.741 0 0 1-.2 2.764 1.149 1.149 0 0 0 .423 1.563l1.73.99.01.002a.865.865 0 0 0 .448.123.942.942 0 0 0 .8-.459l.107-.185a2.749 2.749 0 0 1 2.3-1.552 2.732 2.732 0 0 1 2.292 1.559z" transform="translate(2 2.561)" style="fill:#888c9f"/>
    </g>
</svg>
