<svg xmlns="http://www.w3.org/2000/svg" width="24" height="24" viewBox="0 0 24 24">
    <g data-name="vuesax/linear/sms-notification">
        <path d="M15 17.75H5a5.869 5.869 0 0 1-4.135-1.388A5.686 5.686 0 0 1-.75 12V5A5.686 5.686 0 0 1 .865.638 5.869 5.869 0 0 1 5-.75h7a.75.75 0 0 1 .75.75.75.75 0 0 1-.75.75H5a4.442 4.442 0 0 0-3.115.987A4.271 4.271 0 0 0 .75 5v7a4.271 4.271 0 0 0 1.135 3.263A4.442 4.442 0 0 0 5 16.25h10a4.442 4.442 0 0 0 3.115-.987A4.271 4.271 0 0 0 19.25 12V7a.75.75 0 0 1 1.5 0v5a5.686 5.686 0 0 1-1.615 4.362A5.869 5.869 0 0 1 15 17.75z" transform="translate(2 3.5)" style="fill:#888c9f"/>
        <path data-name="Vector" d="M5.005 3.865a3.761 3.761 0 0 1-2.342-.778L-.468.586A.75.75 0 0 1-.586-.468.75.75 0 0 1 .468-.586l3.13 2.5a2.4 2.4 0 0 0 2.815 0l1.18-.94a.75.75 0 1 1 .935 1.173l-1.18.94a3.761 3.761 0 0 1-2.343.778z" transform="translate(7 9)" style="fill:#888c9f"/>
        <path data-name="Vector" d="M2.5-.75A3.25 3.25 0 1 1-.75 2.5 3.254 3.254 0 0 1 2.5-.75zm0 5A1.75 1.75 0 1 0 .75 2.5 1.752 1.752 0 0 0 2.5 4.25z" transform="translate(17 3)" style="fill:#888c9f"/>
    </g>
</svg>
