<svg xmlns="http://www.w3.org/2000/svg" width="60" height="60" viewBox="0 0 60 60">
    <defs>
        <clipPath id="sj6gemcpta">
            <path data-name="Rectangle 7032" style="fill:none" d="M0 0h19.76v56.255H0z"/>
        </clipPath>
    </defs>
    <g data-name="Group 21925">
        <g data-name="Group 21924">
            <path data-name="Path 38072" d="M14.424 44.641a.769.769 0 0 0 .763.694h15.5a.769.769 0 0 0 .763-.694l1.339-14.3h-19.7z" transform="translate(19.555 12.969)" style="fill:#20918b"/>
            <path data-name="Path 38073" d="M21.636 2C13.9 2 7.61 8.91 7.61 17.406a2.991 2.991 0 0 0 2.982 2.982h.892l.16 1.7h19.983l.16-1.7h.892a2.991 2.991 0 0 0 2.982-2.982C35.662 8.91 29.369 2 21.636 2zm11.043 16.863h-.747l.168-1.808a.76.76 0 0 0-.2-.587.735.735 0 0 0-.557-.252H11.927a.763.763 0 0 0-.564.252.755.755 0 0 0-.191.587l.168 1.808h-.747a1.462 1.462 0 0 1-1.457-1.457c0-7.657 5.606-13.881 12.5-13.881s12.5 6.224 12.5 13.881a1.462 1.462 0 0 1-1.457 1.457z" transform="translate(20.854 19.695)" style="fill:#df572c"/>
            <g data-name="Group 21923">
                <g data-name="Group 21922" style="clip-path:url(#sj6gemcpta)" transform="translate(4 2)">
                    <path data-name="Path 38096" d="M10.779 0H9.035a2.087 2.087 0 0 0-2.084 2.087v25.418a2.387 2.387 0 0 0-1.441 2.132l.011 2.763a2.584 2.584 0 0 0-1.71 4.3 5.531 5.531 0 0 0-2.647 4.2L.018 52.467A3.444 3.444 0 0 0 3.1 56.238c.112.011.226.017.339.017h12.885a3.462 3.462 0 0 0 2.435-1.02l.117-.117a3.429 3.429 0 0 0 .866-2.647L18.6 40.914a5.524 5.524 0 0 0-2.659-4.205 2.567 2.567 0 0 0-1.681-4.315l.006-2.758a2.328 2.328 0 0 0-1.4-2.11V2.114A2.087 2.087 0 0 0 10.8 0h-.02zm-5.96 38.027.826-.463.105.012h8.314l.106-.012.826.463a3.915 3.915 0 0 1 1.879 2.489H2.939a3.875 3.875 0 0 1 1.88-2.489m12.3 4.1.228 2.278-14.869.021.222-2.282zm1.047 10.483a1.792 1.792 0 0 1-.462 1.376 1.734 1.734 0 0 1-1.324.586l-.9.006-.416-4.163a.829.829 0 1 0-1.651.152l.381 4.046h-3.083v-4.12a.828.828 0 0 0-1.652 0v4.122L6 54.6l.38-4.046a.82.82 0 1 0-1.628-.194c0 .02 0 .04-.005.059L4.339 54.6l-.9-.007a1.738 1.738 0 0 1-1.324-.585 1.785 1.785 0 0 1-.462-1.376L2.33 46.1h15.224zm-3.151-17.637a.961.961 0 0 1-.949.948H5.752a.98.98 0 0 1-.667-.281.944.944 0 0 1-.012-1.335l.006-.006a.926.926 0 0 1 .674-.275h8.314a.939.939 0 0 1 .948.932v.016zm-2.368-5.338v2.743H7.179l-.006-2.734a.671.671 0 0 1 .655-.656h4.145a.654.654 0 0 1 .668.64v.016zM11.226 2.064l-.026 25.26H8.613L8.6 16.9V2.07a.422.422 0 0 1 .419-.425H10.8a.424.424 0 0 1 .425.42z" style="fill:#20918b"/>
                </g>
            </g>
            <path data-name="Rectangle 6988" d="M3 0a3 3 0 0 1 3 3v25H0V3a3 3 0 0 1 3-3z" transform="translate(10.88 2)" style="fill:#df572c"/>
        </g>
    </g>
</svg>
