<svg xmlns="http://www.w3.org/2000/svg" width="60" height="60" viewBox="0 0 60 60">
    <g data-name="Group 21894">
        <path data-name="Path 36935" d="M33.821 0h-3.156A1.215 1.215 0 0 0 29.5 1.258v5.3h5.486v-5.3A1.207 1.207 0 0 0 33.821 0z" transform="translate(.477 10.49)" style="fill:#365470"/>
        <path data-name="Path 36936" d="M36.788 38.318h-10.71a1.8 1.8 0 0 1-1.739-1.941l1.637-27.109a1.772 1.772 0 0 1 1.739-1.688h7.435a1.772 1.772 0 0 1 1.739 1.688l1.637 27.142a1.8 1.8 0 0 1-1.739 1.907z" transform="translate(1.283 9.308)" style="fill:#df572c"/>
        <path data-name="Path 36937" d="M35.39 24.14c0 4.954-1.452 8.972-3.241 8.972S28.9 29.094 28.9 24.14s1.452-8.98 3.249-8.98 3.241 4.017 3.241 8.98z" transform="translate(.878 8.121)" style="fill:#f4f2f2"/>
        <path data-name="Path 36938" d="M47.921.279 46.073 11.9l.27 9.284v.194l-3.891 24.475a.675.675 0 0 1-.768.565l-1.139-.186a.667.667 0 0 1-.557-.785L44.579 21.2l-.27-9.284v-.186L46.166 0z" transform="translate(-22.305 2.456)" style="fill:#df572c"/>
        <path data-name="Path 36939" d="m49.044.71 4.313.692-1.544 9.723-4.313-.684" transform="translate(-23.479 2.345)" style="fill:#f4f2f2"/>
        <path data-name="Rectangle 6668" transform="rotate(-80.96 15.742 -12.08)" style="fill:#42b0ab" d="M0 0h.726v4.372H0z"/>
        <path data-name="Rectangle 6669" transform="rotate(-80.96 16.728 -10.925)" style="fill:#42b0ab" d="M0 0h.726v4.372H0z"/>
        <path data-name="Rectangle 6670" transform="rotate(-80.96 17.715 -9.77)" style="fill:#42b0ab" d="M0 0h.726v4.372H0z"/>
        <path data-name="Rectangle 6671" transform="rotate(-80.8 18.738 -8.785)" style="fill:#42b0ab" d="M0 0h.728v4.384H0z"/>
        <path data-name="Path 36941" d="m44.4 26.86-1.072 7.267-3.216 21.69a2.8 2.8 0 0 1-2.777 2.388H16.624a2.8 2.8 0 0 1-2.777-2.388l-3.216-21.69L9.56 26.86z" transform="translate(1.44 -1.191)" style="fill:#20918b"/>
    </g>
</svg>
