<svg xmlns="http://www.w3.org/2000/svg" width="190" height="167" viewBox="0 0 190 167">
    <defs>
        <clipPath id="jyrjjyocga">
            <rect data-name="Rectangle 6672" width="190" height="167" rx="10" transform="translate(16 603)" style="fill:#fff390"/>
        </clipPath>
    </defs>
    <g data-name="Group 21896">
        <g data-name="Group 21874" transform="translate(-16 -659)">
            <rect data-name="Rectangle 6659" width="190" height="167" rx="10" transform="translate(16 659)" style="fill:#fff390"/>
            <g data-name="Mask Group 101" transform="translate(0 56)" style="clip-path:url(#jyrjjyocga)">
                <circle data-name="Ellipse 2230" cx="105" cy="105" r="105" transform="translate(59 498)" style="fill:#fde736"/>
            </g>
        </g>
        <path data-name="Path 36950" d="M337.519 68.91c2.646 0 4.4 1.121 4.4 1.863s-1.756 1.863-4.4 1.863-4.4-1.12-4.4-1.863 1.755-1.863 4.4-1.863z" transform="translate(-241.253 -50.112)" style="fill:#b9a400"/>
        <path data-name="Path 36951" d="M194.728 106.6v-4.483a16.385 16.385 0 0 1-5.291 0v4.483c-18.571 1.213-33.99 15.049-36.45 32.877h78.192c-2.477-17.828-17.88-31.664-36.452-32.877zm-22.042 11.7a31.416 31.416 0 0 0-9.589 10.4 1.687 1.687 0 0 1-2.932-1.669 34.811 34.811 0 0 1 10.617-11.51 1.685 1.685 0 0 1 1.9 2.78zm7.567-3.825a30.928 30.928 0 0 0-2.9 1.18 1.685 1.685 0 0 1-1.4-3.066 41.766 41.766 0 0 1 3.184-1.3 1.687 1.687 0 0 1 1.113 3.185z" transform="translate(-95.813 -76.92)" style="fill:#b9a400"/>
        <path data-name="Path 36952" d="M145.18 400.185a1.709 1.709 0 0 1-.253 2.4L142 404.958a1.686 1.686 0 0 1-2.371-.249l-11.906-14.7a1.685 1.685 0 0 1 .249-2.37l2.942-2.383a1.684 1.684 0 0 1 2.37.249l11.893 14.683z" transform="translate(-75.114 -305.226)" style="fill:#b9a400"/>
        <path data-name="Path 36953" d="M140.1 314.718a.5.5 0 0 0-.475.689 6.231 6.231 0 0 0 5.7 3.674h10.255a15.664 15.664 0 0 0-9.234 7.734l11.031 13.621c9.913-3.776 16.525-.748 21.817-.73h.057c11.571 0 24.34-13.21 28.694-20.627h9.117a6.3 6.3 0 0 0 5.89-3.632.513.513 0 0 0-.457-.731zm51.944 12.522a19.417 19.417 0 0 1-5.8 3.712c-5.508 2.225-14.593-.777-18.621.511a1.795 1.795 0 0 1-1.1-3.418c4.982-1.6 13.949 1.364 18.371-.421 3.24-1.309 5.666-3.677 5.748-4.461.042-1.011-4.338-.922-5.35-.838-12.152 1.008-14.715-2.113-19.679-3.243h37.837c-3.058 1.921-6.906 4.662-11.408 8.159z" transform="translate(-84.998 -248.579)" style="fill:#b9a400"/>
        <g>
            <path data-name="Path 36956" d="M166.729 91.863c-5.848 1.151-8.1 4.219-9.125 11.4-1.021-7.185-3.277-10.253-9.125-11.4 5.848-1.151 8.1-4.219 9.125-11.4 1.022 7.182 3.277 10.25 9.125 11.4zm6.111 4.164c-.795 5.594-2.551 7.983-7.1 8.879 4.553.9 6.31 3.285 7.1 8.879.795-5.594 2.551-7.983 7.1-8.879-4.548-.896-6.305-3.284-7.1-8.878zm4.543-3.162c.532-3.742 1.707-5.339 4.752-5.939-3.046-.6-4.22-2.2-4.752-5.939-.532 3.742-1.707 5.339-4.752 5.939 3.046.6 4.221 2.197 4.752 5.939z" style="fill:#fff" transform="translate(-21.171 -65.405)"/>
        </g>
    </g>
</svg>
