<svg xmlns="http://www.w3.org/2000/svg" width="60" height="60" viewBox="0 0 60 60">
    <g data-name="Group 21893">
        <path data-name="Path 36943" d="M53.356 12.148c.759 7.083-.928 15.262-1.349 22.346-.253 4.469.59 11.552-1.771 15.684-2.445 4.216-9.023 4.975-12.817 2.192-3.963-2.87-3.035-7.67-2.783-11.89.675-10.119-2.192-20.237-1.939-30.441.253-5.565 2.361-11.214 9.023-9.781 4.469 1.012 11.13 7.252 11.636 11.89z" transform="translate(-1.622 2.996)" style="fill:#20918b"/>
        <path data-name="Path 36944" d="M53.251 27.19A22.919 22.919 0 0 1 53 29.8a14.831 14.831 0 0 0-1.939-5.734 5.006 5.006 0 0 0-.337-.675l-7.929-10.704-4.638 7.42a9.143 9.143 0 0 0-1.349 3.036 15.677 15.677 0 0 0-2.361 6.324 18.91 18.91 0 0 1-.253-4.385 19.45 19.45 0 0 1 1.012-5.565c1.012-2.783 4.469-7.5 6.24-9.866l-.675-.843c-.084-.169-.169-.253-.253-.422a13.13 13.13 0 0 1 .506-1.265 3.612 3.612 0 0 1 1.1-.422c.084.169.169.253.253.422l1.433 2.024a14.906 14.906 0 0 1 3.036 2.783c6.071 7.926 6.746 9.191 6.409 15.262z" transform="translate(-1.854 1.95)" style="fill:#f4f2f2"/>
        <path data-name="Path 36945" d="M53.051 32.877c-.084.422-.084.843-.169 1.265a21.018 21.018 0 0 1-.928 3.373 10.04 10.04 0 0 1-2.867 3.963c-2.445 2.108-1.855-2.277-1.855-2.277a17.305 17.305 0 0 0 1.6-3.12c.759-1.686 1.433-3.71 2.024-5.312.084-.337.253-.675.337-1.012a3.975 3.975 0 0 0-.084-2.614 13.4 13.4 0 0 1 1.939 5.734zm-14.5 8.6a14.954 14.954 0 0 1-2.951-5.143 12.408 12.408 0 0 1-1.1-3.71 15.677 15.677 0 0 1 2.361-6.324 11.558 11.558 0 0 0 .253 6.493v.084a13.454 13.454 0 0 0 .843 1.939 19.863 19.863 0 0 0 1.686 3.036c.257 5.397-1.096 3.626-1.096 3.626z" transform="translate(-1.907 -1.122)" style="fill:#f4f2f2"/>
        <path data-name="Path 36946" d="M6.672 12.311c-.675 7.083 1.1 15.178 1.6 22.261.337 4.469-.506 11.552 1.939 15.6 2.445 4.216 9.107 4.891 12.9 2.024 3.963-2.951 2.951-7.673 2.614-11.974C24.97 30.1 27.753 19.9 27.331 9.7c-.253-5.4-2.445-10.965-9.107-9.447C13.755 1.265 7.178 7.589 6.672 12.311z" transform="translate(2.479 3.001)" style="fill:#20918b"/>
        <path data-name="Path 36947" d="M7.286 27.259c.084.928.169 1.855.253 2.614a15.563 15.563 0 0 1 1.855-5.734 5.007 5.007 0 0 1 .337-.675l7.758-10.793 4.722 7.336a10.281 10.281 0 0 1 1.433 3.036 16.487 16.487 0 0 1 2.445 6.324 26.809 26.809 0 0 0 .253-4.385 19.7 19.7 0 0 0-1.1-5.565c-1.012-2.783-4.553-7.5-6.324-9.781l.682-1.012c.084 0 .169-.169.253-.337a13.13 13.13 0 0 0-.506-1.265 3.612 3.612 0 0 0-1.1-.422c-.084.169-.169.253-.253.422l-1.432 2.023a16.971 16.971 0 0 0-3.036 2.867c-5.987 8.011-6.577 9.276-6.24 15.347z" transform="translate(2.371 1.966)" style="fill:#f4f2f2"/>
        <path data-name="Path 36948" d="M7.6 32.946c.084.422.084.843.169 1.265a14.592 14.592 0 0 0 1.012 3.373 10.938 10.938 0 0 0 2.867 3.963c2.445 2.024 1.771-2.277 1.771-2.277a11.649 11.649 0 0 1-1.6-3.12c-.759-1.686-1.518-3.71-2.108-5.312a4.754 4.754 0 0 1-.337-1.012 3.969 3.969 0 0 1 0-2.614A18.755 18.755 0 0 0 7.6 32.946zm14.588 8.432a16.14 16.14 0 0 0 2.867-5.144 12.408 12.408 0 0 0 1.1-3.71 15.049 15.049 0 0 0-2.449-6.324 11.431 11.431 0 0 1-.169 6.493v.084a46.615 46.615 0 0 1-.759 1.939 24.392 24.392 0 0 1-1.686 3.12c-.169 5.4 1.1 3.542 1.1 3.542z" transform="translate(2.31 -1.107)" style="fill:#f4f2f2"/>
    </g>
</svg>
