<svg xmlns="http://www.w3.org/2000/svg" width="60" height="60" viewBox="0 0 60 60">
    <g data-name="Group 21926">
        <path d="M50.236 11.4V9.319A6.944 6.944 0 0 0 43.3 2.38H12.212a6.944 6.944 0 0 0-6.939 6.939V11.4H0v3.331h5.273v40.522h34.416v-14.71h10.547V14.731h5.274V11.4zm-3.33-2.081V11.4h-7.217V9.319a3.608 3.608 0 1 1 7.216 0zm-10.547 42.6H8.6v-42.6a3.608 3.608 0 0 1 3.608-3.608h25.161a6.911 6.911 0 0 0-1.01 3.608zm10.547-14.71h-7.217V14.731h7.216z" transform="translate(2 1.62)" style="fill:#df572c"/>
    </g>
</svg>
