<svg xmlns="http://www.w3.org/2000/svg" width="157.001" height="175.392" viewBox="0 0 157.001 175.392">
    <defs>
        <clipPath id="i4hpsf8rha">
            <path data-name="Rectangle 6939" style="fill:none" d="M0 0h76.319v175.392H0z"/>
        </clipPath>
    </defs>
    <g data-name="Group 21876">
        <path data-name="Path 38053" d="m2051.076 4407.42 106.286-26.816 50.715 80.924-152.713 33.27z" transform="translate(-2051.076 -4363.203)" style="fill:#def6ff"/>
        <g data-name="Group 21858">
            <g data-name="Group 21857" transform="translate(28.342)" style="clip-path:url(#i4hpsf8rha)">
                <path data-name="Path 38045" d="M37 72.744a37 37 0 1 0 37 37 37 37 0 0 0-37-37m0 68.51a31.509 31.509 0 1 1 31.51-31.509A31.509 31.509 0 0 1 37 141.254" transform="translate(0 -67.101)" style="fill:#ffb640"/>
                <path data-name="Path 38046" d="M385.655 8.385A8.383 8.383 0 1 1 377.272 0a8.383 8.383 0 0 1 8.383 8.383" transform="translate(-340.271 -.002)" style="fill:#0e8bbc"/>
                <path data-name="Path 38047" d="M599.941 982.872a75.3 75.3 0 0 1-14.051 3.7c-6.893.969-18.091-.734-18.091-.734l-.138-2.981c10.922.2 20.978-1.44 25.646-3.365 0 0-.173-4.195-.492-10.911-.216-4.584-.5-10.344-.844-16.748-1.316-24.594-3.491-58.679-6-72.085l.387-.022c4.089 13.4 13.583 103.146 13.583 103.146" transform="translate(-523.622 -811.477)" style="fill:#0e8bbc"/>
                <path data-name="Path 38048" d="M549.629 979.748c-4.669 1.925-14.724 3.562-25.646 3.365l-.3-6.529-.224-6.36-.606-17.133-2.541-71.863 21.983-1.223c2.511 13.406 4.686 47.491 6 72.085.342 6.4.627 12.163.844 16.747.319 6.716.492 10.911.492 10.911" transform="translate(-479.944 -811.735)" style="fill:#31aaba"/>
                <path data-name="Path 38049" d="M136.071 881.262c-4.669 1.925-14.724 3.562-25.646 3.365a86.492 86.492 0 0 1-13.025-1.176 72.739 72.739 0 0 0-1.595-.256 73.35 73.35 0 0 0-14.633-.857 37.776 37.776 0 0 0-7.807 1.027s-.389-6.277-.787-15.292c-.218-4.922-.681-10.657-.594-16.637.238-16.326 1.748-30.389 2.332-39.6a224.731 224.731 0 0 1 3.982-31.646 7.085 7.085 0 0 1 6-5.548c7.495-1 36.588-3.123 42.606 1.231.625.453 1.241 2.468 1.835 5.646 2.511 13.406 4.686 47.491 6 72.085.342 6.4.627 12.163.844 16.747.319 6.716.492 10.911.492 10.911" transform="translate(-66.386 -713.248)" style="fill:#16b4f3"/>
                <path data-name="Path 38050" d="m264.154 802.75-.774-.138c1.338-7.506 3-16.847 8.836-23.339l.585.526c-5.682 6.325-7.326 15.544-8.646 22.952" transform="translate(-242.947 -718.818)" style="fill:#0e8bbc"/>
                <path data-name="Path 38051" d="M360.763 795.867c-.832-4.767-1.419-11.694.514-17.626l.748.244c-1.883 5.778-1.3 12.568-.487 17.247z" transform="translate(-332.056 -717.866)" style="fill:#0e8bbc"/>
                <path data-name="Path 38052" d="M135.707 1776.9c-4.443 1.139-15.668 3.5-25.682 1.386-.2-.043-.405-.086-.606-.134-12.962-2.991-19.343-5.279-30.512-4.334a62.153 62.153 0 0 0-6.207.8 934.455 934.455 0 0 1-.594-16.637 53.718 53.718 0 0 1 37.312 3.17c.11.051.218.1.328.155 10.218 4.913 21.265.651 25.115-1.156.342 6.4.627 12.164.844 16.748" transform="translate(-66.514 -1619.798)" style="fill:#0e8bbc"/>
            </g>
        </g>
    </g>
</svg>
